<svg width="46" height="45" viewBox="0 0 46 45" fill="none" xmlns="http://www.w3.org/2000/svg">
<g clip-path="url(#clip0_1_928)">
<path d="M20.1527 38.8181C30.601 38.8181 39.071 30.2949 39.071 19.781C39.071 9.2671 30.601 0.743896 20.1527 0.743896C9.70439 0.743896 1.23438 9.2671 1.23438 19.781C1.23438 30.2949 9.70439 38.8181 20.1527 38.8181Z" fill="white"/>
<path opacity="0.4" d="M42.3186 44.6454C41.5837 44.6216 40.8849 44.3193 40.3622 43.7989L35.8821 38.5622C34.9216 37.6838 34.843 36.191 35.706 35.2154C36.1099 34.8067 36.6591 34.5769 37.232 34.5769C37.8048 34.5769 38.354 34.8067 38.758 35.2154L44.3924 39.7237C45.204 40.5544 45.4544 41.7876 45.0318 42.8721C44.6091 43.9566 43.5924 44.6898 42.436 44.7439L42.3186 44.6454Z" fill="white"/>
</g>
<defs>
<clipPath id="clip0_1_928">
<rect width="45" height="45" fill="white" transform="translate(0.893066 0.000244141)"/>
</clipPath>
</defs>
</svg>
