<svg width="33" height="24" viewBox="0 0 33 24" fill="none" xmlns="http://www.w3.org/2000/svg">
<g clip-path="url(#clip0_1_944)">
<path d="M16.3326 15.8629C11.3127 15.8629 7.07715 16.6831 7.07715 19.849C7.07715 23.0161 11.3401 23.8075 16.3326 23.8075C21.3525 23.8075 25.5881 22.9873 25.5881 19.8214C25.5881 16.6543 21.3252 15.8629 16.3326 15.8629Z" fill="white"/>
<path opacity="0.4" d="M16.3327 12.8467C19.7319 12.8467 22.4575 10.1054 22.4575 6.68669C22.4575 3.26666 19.7319 0.526703 16.3327 0.526703C12.9336 0.526703 10.208 3.26666 10.208 6.68669C10.208 10.1054 12.9336 12.8467 16.3327 12.8467Z" fill="white"/>
<path opacity="0.4" d="M29.6304 8.12111C30.5098 4.66176 27.9315 1.5549 24.6483 1.5549C24.2913 1.5549 23.95 1.59421 23.6164 1.66104C23.5721 1.67152 23.5226 1.6938 23.4966 1.73311C23.4666 1.7829 23.4887 1.84973 23.5213 1.89297C24.5076 3.28457 25.0743 4.97886 25.0743 6.79764C25.0743 8.54042 24.5545 10.1652 23.6425 11.5136C23.5487 11.6525 23.6321 11.8399 23.7975 11.8687C24.0268 11.9093 24.2613 11.9303 24.5011 11.9368C26.8918 11.9998 29.0376 10.4522 29.6304 8.12111Z" fill="white"/>
<path d="M32.1351 16.2661C31.6974 15.3278 30.6408 14.6845 29.0343 14.3687C28.2761 14.1826 26.2241 13.9206 24.3154 13.9559C24.2867 13.9598 24.2711 13.9795 24.2685 13.9926C24.2646 14.0109 24.2724 14.0424 24.3102 14.0621C25.1922 14.501 28.6018 16.4102 28.1731 20.437C28.1549 20.6112 28.2943 20.7619 28.4676 20.7357C29.3066 20.6152 31.4655 20.1487 32.1351 18.6955C32.5051 17.9276 32.5051 17.0353 32.1351 16.2661Z" fill="white"/>
<path opacity="0.4" d="M9.19677 1.66137C8.86455 1.59323 8.52189 1.55524 8.16491 1.55524C4.88174 1.55524 2.30338 4.66209 3.18412 8.12145C3.77561 10.4525 5.92142 12.0001 8.31213 11.9372C8.55186 11.9307 8.78768 11.9084 9.01568 11.8691C9.18114 11.8402 9.26452 11.6528 9.17072 11.514C8.25872 10.1643 7.73888 8.54077 7.73888 6.79797C7.73888 4.97788 8.30692 3.28359 9.29318 1.89331C9.32445 1.85007 9.34791 1.78324 9.31664 1.73344C9.29058 1.69282 9.24237 1.67186 9.19677 1.66137Z" fill="white"/>
<path d="M3.77935 14.3679C2.17293 14.6837 1.11762 15.3271 0.679853 16.2653C0.308539 17.0345 0.308539 17.9268 0.679853 18.6961C1.34952 20.1479 3.50836 20.6157 4.3474 20.735C4.52068 20.7612 4.65878 20.6118 4.64054 20.4362C4.2119 16.4108 7.62146 14.5016 8.5048 14.0626C8.54128 14.0416 8.54909 14.0115 8.54518 13.9919C8.54258 13.9788 8.52825 13.9591 8.49958 13.9565C6.58962 13.9198 4.53892 14.1819 3.77935 14.3679Z" fill="white"/>
</g>
<defs>
<clipPath id="clip0_1_944">
<rect width="32.2286" height="24" fill="white" transform="translate(0.401367)"/>
</clipPath>
</defs>
</svg>
