<svg width="37" height="38" viewBox="0 0 37 38" fill="none" xmlns="http://www.w3.org/2000/svg">
<g clip-path="url(#clip0_1_955)">
<path d="M18.1073 36.6134C27.823 36.6134 35.699 28.7373 35.699 19.0217C35.699 9.30606 27.823 1.42999 18.1073 1.42999C8.3917 1.42999 0.515625 9.30606 0.515625 19.0217C0.515625 28.7373 8.3917 36.6134 18.1073 36.6134Z" fill="white" fill-opacity="0.4"/>
<path d="M21.5505 8.1579C21.5505 7.71245 21.0119 7.48937 20.697 7.80435L9.22677 19.2746C9.10634 19.3952 9.02434 19.5487 8.99114 19.7159C8.95793 19.883 8.97501 20.0563 9.0402 20.2137C9.1054 20.3712 9.21579 20.5058 9.35744 20.6005C9.49909 20.6953 9.66564 20.7459 9.83606 20.7461H14.1644C14.4405 20.7461 14.6644 20.97 14.6644 21.2461V29.8855C14.6644 30.3309 15.2029 30.554 15.5179 30.239L26.9882 18.7688C27.1086 18.6482 27.1906 18.4946 27.2238 18.3275C27.257 18.1603 27.2399 17.9871 27.1747 17.8296C27.1095 17.6722 26.9991 17.5376 26.8575 17.4428C26.7158 17.3481 26.5493 17.2974 26.3789 17.2973H22.0505C21.7744 17.2973 21.5505 17.0734 21.5505 16.7973V8.1579Z" fill="white"/>
</g>
<defs>
<clipPath id="clip0_1_955">
<rect width="36" height="37" fill="white" transform="translate(0.515625 0.5)"/>
</clipPath>
</defs>
</svg>
