<svg width="43" height="42" viewBox="0 0 43 42" fill="none" xmlns="http://www.w3.org/2000/svg">
<g opacity="0.84992" clip-path="url(#clip0_1_890)">
<path opacity="0.4" d="M2.97975 9.01221H26.777C27.8778 9.01221 28.7714 9.9052 28.7714 11.0055C28.7714 12.1057 27.8778 12.9988 26.777 12.9988H2.97975C1.87885 12.9988 0.985352 12.1057 0.985352 11.0055C0.985352 9.9052 1.87885 9.01221 2.97975 9.01221Z" fill="white"/>
<mask id="mask0_1_890" style="mask-type:alpha" maskUnits="userSpaceOnUse" x="24" y="0" width="18" height="22">
<path fill-rule="evenodd" clip-rule="evenodd" d="M24.647 21.9653V0.5H41.8081V21.9653H24.647Z" fill="white"/>
</mask>
<g mask="url(#mask0_1_890)">
<path d="M25.9939 0.683228C26.2453 0.683228 26.4931 0.753226 26.7122 0.889637L40.9645 9.86584C41.3559 10.1135 41.5949 10.5425 41.5949 11.0055C41.5949 11.4686 41.3559 11.8977 40.9645 12.1453L26.7122 21.1215C26.2974 21.3818 25.773 21.398 25.3438 21.1592C24.9127 20.9223 24.647 20.4718 24.647 19.9818V2.02939C24.647 1.53938 24.9127 1.08887 25.3438 0.851945C25.5467 0.738867 25.7712 0.683228 25.9939 0.683228Z" fill="white"/>
</g>
<path opacity="0.4" d="M39.5475 32.559H15.7503C14.6493 32.559 13.7559 31.6659 13.7559 30.5657C13.7559 29.4653 14.6493 28.5724 15.7503 28.5724H39.5475C40.6484 28.5724 41.5419 29.4653 41.5419 30.5657C41.5419 31.6659 40.6484 32.559 39.5475 32.559Z" fill="white"/>
<mask id="mask1_1_890" style="mask-type:alpha" maskUnits="userSpaceOnUse" x="0" y="19" width="18" height="23">
<path fill-rule="evenodd" clip-rule="evenodd" d="M17.7441 19.6058V41.0711H0.583008V19.6058H17.7441Z" fill="white"/>
</mask>
<g mask="url(#mask1_1_890)">
<path d="M16.3973 40.8878C16.1459 40.8878 15.8981 40.8178 15.679 40.6815L1.42675 31.7053C1.03524 31.4575 0.796387 31.0286 0.796387 30.5655C0.796387 30.1025 1.03524 29.6734 1.42675 29.4258L15.679 20.4496C16.0939 20.1893 16.6183 20.1732 17.0474 20.4118C17.4785 20.6488 17.7443 21.0993 17.7443 21.5893V39.5418C17.7443 40.0317 17.4785 40.4822 17.0474 40.7191C16.8445 40.8322 16.62 40.8878 16.3973 40.8878Z" fill="white"/>
</g>
</g>
<defs>
<clipPath id="clip0_1_890">
<rect width="42" height="41" fill="white" transform="translate(0.228516 0.5)"/>
</clipPath>
</defs>
</svg>
