<svg width="44" height="39" viewBox="0 0 44 39" fill="none" xmlns="http://www.w3.org/2000/svg">
<g opacity="0.84992" clip-path="url(#clip0_1_918)">
<path fill-rule="evenodd" clip-rule="evenodd" d="M42.314 12.1618H33.4016C29.254 12.1691 25.894 15.4375 25.8865 19.472C25.8809 23.5156 29.2446 26.7985 33.4016 26.804H42.3215V27.4464C42.3215 34.5 38.0355 38.6709 30.7825 38.6709H11.7695C4.51452 38.6709 0.228516 34.5 0.228516 27.4464V12.0836C0.228516 5.02999 4.51452 0.875366 11.7695 0.875366H30.7749C38.0281 0.875366 42.314 5.02999 42.314 12.0836V12.1618ZM10.2036 12.1454H22.0739H22.0813H22.0964C22.985 12.1418 23.7033 11.4374 23.6996 10.5712C23.6959 9.70681 22.9699 9.00801 22.0813 9.01165H10.2036C9.32063 9.01528 8.60411 9.71227 8.60037 10.5731C8.59663 11.4374 9.31501 12.1418 10.2036 12.1454Z" fill="white"/>
<path opacity="0.4" d="M29.7725 20.3961C30.2127 22.3934 31.9679 23.7986 33.9718 23.7621H40.8117C41.6454 23.7621 42.3218 23.0732 42.3218 22.2216V16.906C42.3199 16.0563 41.6454 15.3656 40.8117 15.3638H33.8107C31.5313 15.3711 29.6902 17.2587 29.6939 19.5848C29.6939 19.8572 29.7207 20.1294 29.7725 20.3961Z" fill="white"/>
<path d="M33.9025 21.6629C35.0649 21.6629 36.0071 20.7228 36.0071 19.5631C36.0071 18.4035 35.0649 17.4634 33.9025 17.4634C32.7401 17.4634 31.7979 18.4035 31.7979 19.5631C31.7979 20.7228 32.7401 21.6629 33.9025 21.6629Z" fill="white"/>
</g>
<defs>
<clipPath id="clip0_1_918">
<rect width="43" height="39" fill="white" transform="translate(0.228516)"/>
</clipPath>
</defs>
</svg>
