<svg width="33" height="25" viewBox="0 0 33 25" fill="none" xmlns="http://www.w3.org/2000/svg">
<g clip-path="url(#clip0_1_854)">
<path d="M16.0016 16.8507C10.9817 16.8507 6.74609 17.671 6.74609 20.8368C6.74609 24.0039 11.009 24.7954 16.0016 24.7954C21.0215 24.7954 25.2571 23.9751 25.2571 20.8093C25.2571 17.6422 20.9941 16.8507 16.0016 16.8507Z" fill="white"/>
<path opacity="0.4" d="M16.0017 13.8346C19.4008 13.8346 22.1264 11.0933 22.1264 7.67464C22.1264 4.25461 19.4008 1.51465 16.0017 1.51465C12.6025 1.51465 9.87695 4.25461 9.87695 7.67464C9.87695 11.0933 12.6025 13.8346 16.0017 13.8346Z" fill="white"/>
<path opacity="0.4" d="M29.2994 9.10905C30.1788 5.6497 27.6004 2.54285 24.3172 2.54285C23.9602 2.54285 23.6189 2.58216 23.2854 2.64898C23.2411 2.65947 23.1916 2.68175 23.1655 2.72106C23.1355 2.77085 23.1577 2.83768 23.1903 2.88092C24.1765 4.27252 24.7433 5.96681 24.7433 7.78559C24.7433 9.52837 24.2234 11.1532 23.3114 12.5016C23.2176 12.6405 23.301 12.8278 23.4665 12.8567C23.6958 12.8973 23.9303 12.9183 24.17 12.9248C26.5608 12.9877 28.7066 11.4401 29.2994 9.10905Z" fill="white"/>
<path d="M31.8041 17.254C31.3663 16.3157 30.3097 15.6724 28.7033 15.3565C27.945 15.1705 25.893 14.9084 23.9843 14.9438C23.9557 14.9477 23.94 14.9674 23.9374 14.9805C23.9335 14.9988 23.9413 15.0303 23.9791 15.0499C24.8612 15.4889 28.2707 17.3981 27.8421 21.4248C27.8239 21.5991 27.9633 21.7498 28.1365 21.7236C28.9756 21.603 31.1344 21.1365 31.8041 19.6833C32.1741 18.9154 32.1741 18.0231 31.8041 17.254Z" fill="white"/>
<path opacity="0.4" d="M8.86572 2.64923C8.53349 2.58109 8.19084 2.54309 7.83386 2.54309C4.55068 2.54309 1.97233 5.64995 2.85306 9.10931C3.44456 11.4404 5.59036 12.9879 7.98108 12.925C8.2208 12.9185 8.45662 12.8962 8.68462 12.8569C8.85009 12.8281 8.93347 12.6407 8.83966 12.5018C7.92766 11.1521 7.40782 9.52862 7.40782 7.78583C7.40782 5.96574 7.97587 4.27145 8.96213 2.88116C8.9934 2.83792 9.01685 2.77109 8.98558 2.72129C8.95952 2.68067 8.91132 2.65971 8.86572 2.64923Z" fill="white"/>
<path d="M3.4483 15.3558C1.84188 15.6717 0.786562 16.315 0.348798 17.2533C-0.0225161 18.0224 -0.0225161 18.9147 0.348798 19.684C1.01847 21.1358 3.1773 21.6036 4.01634 21.7229C4.18962 21.7491 4.32773 21.5997 4.30949 21.4241C3.88085 17.3987 7.2904 15.4895 8.17374 15.0505C8.21022 15.0296 8.21804 14.9995 8.21413 14.9798C8.21152 14.9667 8.19719 14.947 8.16853 14.9444C6.25856 14.9077 4.20786 15.1698 3.4483 15.3558Z" fill="white"/>
</g>
<defs>
<clipPath id="clip0_1_854">
<rect width="32.2286" height="24" fill="white" transform="translate(0.0703125 0.987915)"/>
</clipPath>
</defs>
</svg>
