<svg width="28" height="25" viewBox="0 0 28 25" fill="none" xmlns="http://www.w3.org/2000/svg">
<g clip-path="url(#clip0_1_865)">
<path fill-rule="evenodd" clip-rule="evenodd" d="M27.0983 8.35305H21.5487C18.9661 8.35757 16.8739 10.3975 16.8693 12.9155C16.8658 15.4393 18.9603 17.4883 21.5487 17.4917H27.103V17.8926C27.103 22.2949 24.4342 24.8982 19.9178 24.8982H8.07886C3.56138 24.8982 0.892578 22.2949 0.892578 17.8926V8.3042C0.892578 3.90186 3.56138 1.30884 8.07886 1.30884H19.9131C24.4295 1.30884 27.0983 3.90186 27.0983 8.3042V8.35305ZM7.10388 8.34277H14.4952H14.4999H14.5092C15.0625 8.34048 15.5098 7.90094 15.5075 7.36031C15.5052 6.82082 15.0532 6.38465 14.4999 6.38692H7.10388C6.55406 6.3892 6.10788 6.8242 6.10555 7.36145C6.10322 7.90094 6.55057 8.34048 7.10388 8.34277Z" fill="white"/>
<path opacity="0.4" d="M19.2888 13.4922C19.5628 14.7387 20.6558 15.6158 21.9035 15.593H26.1626C26.6818 15.593 27.1028 15.163 27.1028 14.6315V11.3139C27.1018 10.7835 26.6818 10.3525 26.1626 10.3513H21.8032C20.3839 10.3559 19.2375 11.534 19.2397 12.9858C19.2397 13.1558 19.2564 13.3257 19.2888 13.4922Z" fill="white"/>
<path d="M21.8608 14.2829C22.5846 14.2829 23.1713 13.6962 23.1713 12.9724C23.1713 12.2486 22.5846 11.6619 21.8608 11.6619C21.137 11.6619 20.5503 12.2486 20.5503 12.9724C20.5503 13.6962 21.137 14.2829 21.8608 14.2829Z" fill="white"/>
</g>
<defs>
<clipPath id="clip0_1_865">
<rect width="26.8571" height="24" fill="white" transform="translate(0.755859 0.987915)"/>
</clipPath>
</defs>
</svg>
