<svg width="43" height="42" viewBox="0 0 43 42" fill="none" xmlns="http://www.w3.org/2000/svg">
<g opacity="0.84992" clip-path="url(#clip0_1_908)">
<path opacity="0.4" d="M31.111 0H11.7641C4.7138 0 0.719238 3.99456 0.719238 11.0448V30.3733C0.719238 37.4237 4.7138 41.4183 11.7641 41.4183H31.111C38.1613 41.4183 42.1375 37.4237 42.1375 30.3733V11.0448C42.1375 3.99456 38.1613 0 31.111 0Z" fill="white"/>
<path d="M11.8369 15.2605C10.8982 15.2605 10.125 16.0336 10.125 16.9908V31.2203C10.125 32.1591 10.8982 32.9322 11.8369 32.9322C12.7941 32.9322 13.5673 32.1591 13.5673 31.2203V16.9908C13.5673 16.0336 12.7941 15.2605 11.8369 15.2605Z" fill="white"/>
<path d="M21.5015 8.46765C20.5626 8.46765 19.7896 9.24079 19.7896 10.198V31.22C19.7896 32.1589 20.5626 32.9321 21.5015 32.9321C22.4587 32.9321 23.2318 32.1589 23.2318 31.22V10.198C23.2318 9.24079 22.4587 8.46765 21.5015 8.46765Z" fill="white"/>
<path d="M31.037 22.771C30.0798 22.771 29.3066 23.5442 29.3066 24.5014V31.2203C29.3066 32.1592 30.0798 32.9323 31.0186 32.9323C31.9758 32.9323 32.749 32.1592 32.749 31.2203V24.5014C32.749 23.5442 31.9758 22.771 31.037 22.771Z" fill="white"/>
</g>
<defs>
<clipPath id="clip0_1_908">
<rect width="42" height="42" fill="white" transform="translate(0.393066)"/>
</clipPath>
</defs>
</svg>
