<svg width="92" height="13" viewBox="0 0 92 13" fill="none" xmlns="http://www.w3.org/2000/svg">
<path d="M0.580078 12.5689V1.22893H7.29745V2.8748H2.22595V6.07205H6.35245V7.7258H2.22595V12.5689H0.580078Z" fill="white"/>
<path d="M8.87405 2.67005V1.07143H10.5199V2.67005H8.87405ZM8.87405 12.5689V4.06393H10.5199V12.5689H8.87405Z" fill="white"/>
<path d="M18.854 12.5689V8.3873C18.854 8.05655 18.8251 7.71793 18.7674 7.37143C18.7149 7.01968 18.6099 6.69418 18.4524 6.39493C18.3001 6.09568 18.0823 5.85418 17.7988 5.67043C17.5205 5.48668 17.1556 5.3948 16.7041 5.3948C16.4101 5.3948 16.1319 5.44468 15.8694 5.54443C15.6069 5.63893 15.3759 5.7938 15.1764 6.00905C14.9821 6.2243 14.8273 6.5078 14.7118 6.85955C14.6015 7.2113 14.5464 7.63918 14.5464 8.14318L13.5226 7.7573C13.5226 6.98555 13.667 6.30568 13.9558 5.71768C14.2445 5.12443 14.6593 4.66243 15.2 4.33168C15.7408 4.00093 16.3944 3.83555 17.1609 3.83555C17.7489 3.83555 18.2424 3.93005 18.6414 4.11905C19.0404 4.30805 19.3633 4.55743 19.61 4.86718C19.862 5.17168 20.0536 5.50505 20.1849 5.8673C20.3161 6.22955 20.4054 6.58393 20.4526 6.93043C20.4999 7.27693 20.5235 7.58143 20.5235 7.84393V12.5689H18.854ZM12.8769 12.5689V4.06393H14.3495V6.52093H14.5464V12.5689H12.8769Z" fill="white"/>
<path d="M24.9766 12.8052C24.3466 12.8052 23.819 12.6897 23.3937 12.4587C22.9685 12.2224 22.6456 11.9127 22.4251 11.5294C22.2098 11.1409 22.1022 10.7157 22.1022 10.2537C22.1022 9.82318 22.1783 9.44518 22.3306 9.11968C22.4828 8.79418 22.7086 8.51855 23.0078 8.2928C23.3071 8.0618 23.6746 7.87543 24.1103 7.73368C24.4883 7.62343 24.9162 7.5263 25.394 7.4423C25.8717 7.3583 26.3731 7.27955 26.8981 7.20605C27.4283 7.13255 27.9533 7.05905 28.4731 6.98555L27.8746 7.3163C27.8851 6.64955 27.7433 6.15605 27.4493 5.8358C27.1606 5.5103 26.6618 5.34755 25.9531 5.34755C25.5068 5.34755 25.0973 5.45255 24.7246 5.66255C24.3518 5.8673 24.092 6.20855 23.945 6.6863L22.4093 6.2138C22.6193 5.48405 23.0183 4.90393 23.6063 4.47343C24.1996 4.04293 24.9871 3.82768 25.9688 3.82768C26.7301 3.82768 27.3916 3.95893 27.9533 4.22143C28.5203 4.47868 28.9351 4.88818 29.1976 5.44993C29.3341 5.72818 29.4181 6.02218 29.4496 6.33193C29.4811 6.64168 29.4968 6.97505 29.4968 7.33205V12.5689H28.04V10.6238L28.3235 10.8758C27.9717 11.5268 27.5228 12.0124 26.9768 12.3327C26.4361 12.6477 25.7693 12.8052 24.9766 12.8052ZM25.268 11.4586C25.7352 11.4586 26.1368 11.3772 26.4728 11.2144C26.8088 11.0464 27.0792 10.8338 27.284 10.5766C27.4887 10.3193 27.6226 10.0516 27.6856 9.7733C27.7748 9.5213 27.8247 9.2378 27.8352 8.9228C27.851 8.6078 27.8588 8.3558 27.8588 8.1668L28.3943 8.36368C27.8746 8.44243 27.4021 8.5133 26.9768 8.5763C26.5516 8.6393 26.1657 8.7023 25.8192 8.7653C25.478 8.82305 25.1735 8.89393 24.9057 8.97793C24.68 9.05668 24.4778 9.15118 24.2993 9.26143C24.1261 9.37168 23.987 9.50555 23.882 9.66305C23.7822 9.82055 23.7323 10.0122 23.7323 10.2379C23.7323 10.4584 23.7875 10.6632 23.8977 10.8522C24.008 11.0359 24.176 11.1829 24.4017 11.2932C24.6275 11.4034 24.9162 11.4586 25.268 11.4586Z" fill="white"/>
<path d="M37.511 12.5689V8.3873C37.511 8.05655 37.4821 7.71793 37.4244 7.37143C37.3719 7.01968 37.2669 6.69418 37.1094 6.39493C36.9571 6.09568 36.7393 5.85418 36.4557 5.67043C36.1775 5.48668 35.8126 5.3948 35.3611 5.3948C35.0671 5.3948 34.7889 5.44468 34.5264 5.54443C34.2639 5.63893 34.0329 5.7938 33.8334 6.00905C33.6391 6.2243 33.4842 6.5078 33.3687 6.85955C33.2585 7.2113 33.2034 7.63918 33.2034 8.14318L32.1796 7.7573C32.1796 6.98555 32.324 6.30568 32.6127 5.71768C32.9015 5.12443 33.3162 4.66243 33.857 4.33168C34.3977 4.00093 35.0514 3.83555 35.8179 3.83555C36.4059 3.83555 36.8994 3.93005 37.2984 4.11905C37.6974 4.30805 38.0202 4.55743 38.267 4.86718C38.519 5.17168 38.7106 5.50505 38.8419 5.8673C38.9731 6.22955 39.0624 6.58393 39.1096 6.93043C39.1569 7.27693 39.1805 7.58143 39.1805 7.84393V12.5689H37.511ZM31.5339 12.5689V4.06393H33.0065V6.52093H33.2034V12.5689H31.5339Z" fill="white"/>
<path d="M44.7623 12.8052C43.8908 12.8052 43.1505 12.6109 42.5415 12.2224C41.9325 11.8339 41.4653 11.3011 41.1398 10.6238C40.8195 9.94655 40.6568 9.17743 40.6515 8.31643C40.6568 7.43968 40.8248 6.6653 41.1555 5.9933C41.4863 5.31605 41.9588 4.7858 42.573 4.40255C43.1873 4.0193 43.9249 3.82768 44.7859 3.82768C45.7151 3.82768 46.5079 4.05868 47.1641 4.52068C47.8256 4.98268 48.2614 5.6153 48.4714 6.41855L46.8334 6.89105C46.6707 6.4133 46.4029 6.04318 46.0301 5.78068C45.6626 5.51293 45.24 5.37905 44.7623 5.37905C44.2215 5.37905 43.7779 5.50768 43.4314 5.76493C43.0849 6.01693 42.8276 6.36343 42.6596 6.80443C42.4916 7.24543 42.405 7.74943 42.3998 8.31643C42.405 9.19318 42.6045 9.90193 42.9983 10.4427C43.3973 10.9834 43.9853 11.2538 44.7623 11.2538C45.2925 11.2538 45.7204 11.1331 46.0459 10.8916C46.3766 10.6448 46.6287 10.2931 46.8019 9.8363L48.4714 10.2301C48.1931 11.0596 47.7338 11.6974 47.0933 12.1437C46.4528 12.5847 45.6758 12.8052 44.7623 12.8052Z" fill="white"/>
<path d="M53.6171 12.8052C52.7718 12.8052 52.029 12.6214 51.3885 12.2539C50.7532 11.8812 50.2571 11.3641 49.9001 10.7026C49.5483 10.0358 49.3725 9.26405 49.3725 8.3873C49.3725 7.45805 49.5457 6.65218 49.8922 5.96968C50.244 5.28718 50.7322 4.75955 51.357 4.3868C51.9817 4.01405 52.7088 3.82768 53.5383 3.82768C54.4046 3.82768 55.1422 4.0298 55.7512 4.43405C56.3602 4.83305 56.8143 5.40268 57.1136 6.14293C57.4181 6.88318 57.5388 7.76255 57.4758 8.78105H55.83V8.18255C55.8195 7.19555 55.6305 6.4658 55.263 5.9933C54.9007 5.5208 54.3468 5.28455 53.6013 5.28455C52.7771 5.28455 52.1576 5.54443 51.7428 6.06418C51.3281 6.58393 51.1207 7.33468 51.1207 8.31643C51.1207 9.25093 51.3281 9.97543 51.7428 10.4899C52.1576 10.9992 52.7561 11.2538 53.5383 11.2538C54.0528 11.2538 54.4965 11.1383 54.8692 10.9073C55.2472 10.6711 55.5412 10.3351 55.7512 9.8993L57.3656 10.4112C57.0348 11.1724 56.5335 11.7631 55.8615 12.1831C55.1895 12.5978 54.4413 12.8052 53.6171 12.8052ZM50.5852 8.78105V7.49743H56.6568V8.78105H50.5852Z" fill="white"/>
<path d="M59.2427 12.5689V1.22893H65.9601V2.8748H60.8885V6.07205H65.0151V7.7258H60.8885V12.5689H59.2427Z" fill="white"/>
<path d="M67.5367 12.5689V0.992676H69.1825V12.5689H67.5367Z" fill="white"/>
<path d="M75.2407 12.8052C74.3902 12.8052 73.6526 12.6136 73.0279 12.2303C72.4031 11.8471 71.9201 11.3194 71.5789 10.6474C71.2429 9.97018 71.0749 9.19055 71.0749 8.30855C71.0749 7.4213 71.2481 6.64168 71.5946 5.96968C71.9411 5.29243 72.4267 4.76743 73.0515 4.39468C73.6762 4.01668 74.406 3.82768 75.2407 3.82768C76.0912 3.82768 76.8289 4.0193 77.4536 4.40255C78.0784 4.7858 78.5614 5.31343 78.9026 5.98543C79.2439 6.65743 79.4145 7.4318 79.4145 8.30855C79.4145 9.1958 79.2412 9.97805 78.8947 10.6553C78.5535 11.3273 78.0705 11.8549 77.4457 12.2382C76.821 12.6162 76.086 12.8052 75.2407 12.8052ZM75.2407 11.2538C76.0545 11.2538 76.6609 10.9808 77.0599 10.4348C77.4641 9.88355 77.6662 9.1748 77.6662 8.30855C77.6662 7.4213 77.4615 6.71255 77.052 6.1823C76.6477 5.6468 76.044 5.37905 75.2407 5.37905C74.6895 5.37905 74.2354 5.50505 73.8784 5.75705C73.5214 6.0038 73.2562 6.34768 73.083 6.78868C72.9097 7.22443 72.8231 7.73105 72.8231 8.30855C72.8231 9.20105 73.0279 9.91505 73.4374 10.4506C73.8469 10.9861 74.448 11.2538 75.2407 11.2538Z" fill="white"/>
<path d="M82.6487 12.5689L80.0499 4.05605L81.68 4.06393L83.4598 9.8993L85.2553 4.06393H86.6728L88.4683 9.8993L90.248 4.06393H91.8703L89.2715 12.5689H87.9485L85.964 6.41068L83.9716 12.5689H82.6487Z" fill="white"/>
</svg>
