<svg width="52" height="31" viewBox="0 0 52 31" fill="none" xmlns="http://www.w3.org/2000/svg">
<g clip-path="url(#clip0_1_1212)">
<path d="M35.6565 22.3319C35.5576 22.0684 26.7883 4.74682 26.6565 4.48337C26.1949 3.36372 25.3707 2.40873 24.2828 1.75011C21.5466 0.169432 18.0521 1.0915 16.4696 3.82476C15.3817 5.70181 15.4477 7.90818 16.5026 9.65351C16.6015 9.88403 24.9751 26.4812 25.14 26.7446C25.2389 27.0081 25.3707 27.2386 25.5026 27.502C25.9641 28.6217 26.7883 29.5767 27.8762 30.2353C30.6125 31.816 34.107 30.9268 35.6894 28.1936C36.8103 26.3165 36.7114 24.0772 35.6565 22.3319Z" fill="white" fill-opacity="0.4"/>
<path d="M25.5361 10.6085C26.4922 9.58763 27.0856 8.20453 27.0856 6.68971C27.0856 3.56128 24.5471 0.992676 21.3823 0.992676C19.4372 0.992676 17.7229 1.94767 16.701 3.42956C16.5032 3.62714 2.29436 21.1464 2.12953 21.3769C1.17348 22.3977 0.580078 23.7808 0.580078 25.2956C0.580078 28.457 3.15151 30.9927 6.28337 30.9927C8.22843 30.9927 9.94272 30.0377 10.9647 28.5558C11.1625 28.3253 25.4043 10.839 25.5361 10.6085Z" fill="white"/>
<path d="M50.03 10.6085C50.9861 9.58763 51.5795 8.20453 51.5795 6.68971C51.5795 3.52835 49.008 0.992676 45.8762 0.992676C43.9311 0.992676 42.2168 1.94767 41.1949 3.42956C40.9971 3.62714 26.7553 21.1464 26.5905 21.3769C25.6344 22.3977 25.041 23.7808 25.041 25.2956C25.041 28.457 27.6124 30.9927 30.7443 30.9927C32.6894 30.9927 34.4037 30.0377 35.4256 28.5558C35.6564 28.3253 49.8652 10.839 50.03 10.6085Z" fill="white"/>
</g>
<defs>
<clipPath id="clip0_1_1212">
<rect width="51" height="30" fill="white" transform="translate(0.580078 0.992676)"/>
</clipPath>
</defs>
</svg>
