<svg width="155" height="30" viewBox="0 0 155 30" fill="none" xmlns="http://www.w3.org/2000/svg">
<g clip-path="url(#clip0_2_443)">
<path d="M35.0764 21.3392C34.9775 21.0758 26.2082 3.75414 26.0764 3.4907C25.6148 2.37105 24.7907 1.41605 23.7028 0.757437C20.9665 -0.823244 17.472 0.0988199 15.8896 2.83208C14.8017 4.70914 14.8676 6.9155 15.9225 8.66084C16.0214 8.89136 24.3951 25.4885 24.5599 25.7519C24.6588 26.0154 24.7907 26.2459 24.9225 26.5094C25.3841 27.629 26.2082 28.584 27.2962 29.2426C30.0324 30.8233 33.5269 29.9342 35.1093 27.2009C36.2302 25.3238 36.1313 23.0846 35.0764 21.3392Z" fill="white" fill-opacity="0.4"/>
<path d="M24.956 9.61581C25.9121 8.59495 26.5055 7.21185 26.5055 5.69704C26.5055 2.56861 23.967 0 20.8022 0C18.8571 0 17.1429 0.954995 16.1209 2.43688C15.9231 2.63447 1.71429 20.1537 1.54945 20.3842C0.593406 21.4051 0 22.7881 0 24.303C0 27.4643 2.57143 30 5.7033 30C7.64835 30 9.36264 29.045 10.3846 27.5631C10.5824 27.3326 24.8242 9.84632 24.956 9.61581Z" fill="white"/>
<path d="M49.4499 9.61581C50.406 8.59495 50.9994 7.21185 50.9994 5.69704C50.9994 2.53567 48.428 0 45.2961 0C43.351 0 41.6368 0.954995 40.6148 2.43688C40.417 2.63447 26.1752 20.1537 26.0104 20.3842C25.0543 21.4051 24.4609 22.7881 24.4609 24.303C24.4609 27.4643 27.0324 30 30.1642 30C32.1093 30 33.8236 29.045 34.8456 27.5631C35.0763 27.3326 49.2851 9.84632 49.4499 9.61581Z" fill="white"/>
</g>
<path d="M63 20.5763V9.23625H69.7174V10.8821H64.6459V14.0794H68.7724V15.7331H64.6459V20.5763H63Z" fill="white"/>
<path d="M71.294 10.6774V9.07875H72.9398V10.6774H71.294ZM71.294 20.5763V12.0712H72.9398V20.5763H71.294Z" fill="white"/>
<path d="M81.2739 20.5763V16.3946C81.2739 16.0639 81.2451 15.7252 81.1873 15.3787C81.1348 15.027 81.0298 14.7015 80.8723 14.4022C80.7201 14.103 80.5022 13.8615 80.2187 13.6777C79.9404 13.494 79.5756 13.4021 79.1241 13.4021C78.8301 13.4021 78.5518 13.452 78.2893 13.5518C78.0268 13.6463 77.7958 13.8011 77.5963 14.0164C77.4021 14.2316 77.2472 14.5151 77.1317 14.8669C77.0214 15.2186 76.9663 15.6465 76.9663 16.1505L75.9426 15.7646C75.9426 14.9929 76.0869 14.313 76.3757 13.725C76.6644 13.1317 77.0792 12.6697 77.6199 12.339C78.1607 12.0082 78.8143 11.8429 79.5808 11.8429C80.1688 11.8429 80.6623 11.9374 81.0613 12.1264C81.4603 12.3154 81.7832 12.5647 82.0299 12.8745C82.2819 13.179 82.4736 13.5124 82.6048 13.8746C82.7361 14.2369 82.8253 14.5912 82.8726 14.9378C82.9198 15.2843 82.9434 15.5887 82.9434 15.8512V20.5763H81.2739ZM75.2968 20.5763V12.0712H76.7694V14.5283H76.9663V20.5763H75.2968Z" fill="white"/>
<path d="M87.3965 20.8125C86.7665 20.8125 86.2389 20.697 85.8136 20.466C85.3884 20.2297 85.0655 19.92 84.845 19.5367C84.6298 19.1482 84.5221 18.723 84.5221 18.261C84.5221 17.8305 84.5983 17.4525 84.7505 17.127C84.9028 16.8015 85.1285 16.5259 85.4278 16.3001C85.727 16.0691 86.0945 15.8828 86.5303 15.741C86.9083 15.6307 87.3361 15.5336 87.8139 15.4496C88.2916 15.3656 88.793 15.2869 89.318 15.2134C89.8483 15.1399 90.3733 15.0664 90.893 14.9929L90.2945 15.3236C90.305 14.6569 90.1633 14.1634 89.8693 13.8431C89.5805 13.5176 89.0818 13.3549 88.373 13.3549C87.9268 13.3549 87.5173 13.4599 87.1445 13.6699C86.7718 13.8746 86.5119 14.2159 86.3649 14.6936L84.8293 14.2211C85.0393 13.4914 85.4383 12.9112 86.0263 12.4808C86.6195 12.0503 87.407 11.835 88.3888 11.835C89.15 11.835 89.8115 11.9662 90.3733 12.2287C90.9403 12.486 91.355 12.8955 91.6175 13.4572C91.754 13.7355 91.838 14.0295 91.8695 14.3392C91.901 14.649 91.9168 14.9824 91.9168 15.3394V20.5763H90.4599V18.6311L90.7434 18.8831C90.3916 19.5341 89.9428 20.0197 89.3968 20.34C88.856 20.655 88.1893 20.8125 87.3965 20.8125ZM87.6879 19.4659C88.1551 19.4659 88.5568 19.3845 88.8928 19.2218C89.2288 19.0538 89.4991 18.8411 89.7039 18.5839C89.9086 18.3266 90.0425 18.0589 90.1055 17.7806C90.1948 17.5286 90.2446 17.2451 90.2551 16.9301C90.2709 16.6151 90.2788 16.3631 90.2788 16.1741L90.8143 16.371C90.2945 16.4497 89.822 16.5206 89.3968 16.5836C88.9715 16.6466 88.5856 16.7096 88.2391 16.7726C87.8979 16.8304 87.5934 16.9013 87.3256 16.9853C87.0999 17.064 86.8978 17.1585 86.7193 17.2688C86.546 17.379 86.4069 17.5129 86.3019 17.6704C86.2021 17.8279 86.1523 18.0195 86.1523 18.2452C86.1523 18.4657 86.2074 18.6705 86.3176 18.8595C86.4279 19.0433 86.5959 19.1903 86.8216 19.3005C87.0474 19.4108 87.3361 19.4659 87.6879 19.4659Z" fill="white"/>
<path d="M99.9309 20.5763V16.3946C99.9309 16.0639 99.902 15.7252 99.8443 15.3787C99.7918 15.027 99.6868 14.7015 99.5293 14.4022C99.377 14.103 99.1592 13.8615 98.8757 13.6777C98.5974 13.494 98.2325 13.4021 97.781 13.4021C97.487 13.4021 97.2088 13.452 96.9463 13.5518C96.6838 13.6463 96.4528 13.8011 96.2533 14.0164C96.059 14.2316 95.9042 14.5151 95.7887 14.8669C95.6784 15.2186 95.6233 15.6465 95.6233 16.1505L94.5995 15.7646C94.5995 14.9929 94.7439 14.313 95.0327 13.725C95.3214 13.1317 95.7362 12.6697 96.2769 12.339C96.8177 12.0082 97.4713 11.8429 98.2378 11.8429C98.8258 11.8429 99.3193 11.9374 99.7183 12.1264C100.117 12.3154 100.44 12.5647 100.687 12.8745C100.939 13.179 101.131 13.5124 101.262 13.8746C101.393 14.2369 101.482 14.5912 101.53 14.9378C101.577 15.2843 101.6 15.5887 101.6 15.8512V20.5763H99.9309ZM93.9538 20.5763V12.0712H95.4264V14.5283H95.6233V20.5763H93.9538Z" fill="white"/>
<path d="M107.182 20.8125C106.311 20.8125 105.57 20.6183 104.961 20.2298C104.352 19.8413 103.885 19.3084 103.56 18.6311C103.239 17.9539 103.077 17.1847 103.071 16.3238C103.077 15.447 103.245 14.6726 103.575 14.0006C103.906 13.3234 104.379 12.7931 104.993 12.4099C105.607 12.0266 106.345 11.835 107.206 11.835C108.135 11.835 108.928 12.066 109.584 12.528C110.246 12.99 110.681 13.6226 110.891 14.4259L109.253 14.8984C109.091 14.4206 108.823 14.0505 108.45 13.788C108.083 13.5202 107.66 13.3864 107.182 13.3864C106.641 13.3864 106.198 13.515 105.851 13.7723C105.505 14.0243 105.248 14.3707 105.08 14.8117C104.912 15.2527 104.825 15.7568 104.82 16.3238C104.825 17.2005 105.024 17.9093 105.418 18.45C105.817 18.9908 106.405 19.2611 107.182 19.2611C107.712 19.2611 108.14 19.1404 108.466 18.8989C108.797 18.6521 109.049 18.3004 109.222 17.8436L110.891 18.2374C110.613 19.0669 110.154 19.7048 109.513 20.151C108.873 20.592 108.096 20.8125 107.182 20.8125Z" fill="white"/>
<path d="M116.037 20.8125C115.192 20.8125 114.449 20.6287 113.808 20.2612C113.173 19.8885 112.677 19.3714 112.32 18.7099C111.968 18.0431 111.792 17.2714 111.792 16.3946C111.792 15.4654 111.966 14.6595 112.312 13.977C112.664 13.2945 113.152 12.7669 113.777 12.3941C114.402 12.0214 115.129 11.835 115.958 11.835C116.825 11.835 117.562 12.0371 118.171 12.4414C118.78 12.8404 119.234 13.41 119.534 14.1502C119.838 14.8905 119.959 15.7699 119.896 16.7884H118.25V16.1899C118.239 15.2029 118.05 14.4731 117.683 14.0006C117.321 13.5281 116.767 13.2919 116.021 13.2919C115.197 13.2919 114.578 13.5517 114.163 14.0715C113.748 14.5912 113.541 15.342 113.541 16.3238C113.541 17.2583 113.748 17.9827 114.163 18.4972C114.578 19.0065 115.176 19.2611 115.958 19.2611C116.473 19.2611 116.916 19.1456 117.289 18.9146C117.667 18.6784 117.961 18.3424 118.171 17.9066L119.786 18.4185C119.455 19.1798 118.953 19.7704 118.281 20.1904C117.609 20.6051 116.861 20.8125 116.037 20.8125ZM113.005 16.7884V15.5048H119.077V16.7884H113.005Z" fill="white"/>
<path d="M121.663 20.5763V9.23625H128.38V10.8821H123.308V14.0794H127.435V15.7331H123.308V20.5763H121.663Z" fill="white"/>
<path d="M129.957 20.5763V9H131.602V20.5763H129.957Z" fill="white"/>
<path d="M137.661 20.8125C136.81 20.8125 136.073 20.6209 135.448 20.2376C134.823 19.8544 134.34 19.3268 133.999 18.6548C133.663 17.9775 133.495 17.1979 133.495 16.3159C133.495 15.4286 133.668 14.649 134.015 13.977C134.361 13.2997 134.847 12.7747 135.471 12.402C136.096 12.024 136.826 11.835 137.661 11.835C138.511 11.835 139.249 12.0266 139.874 12.4099C140.498 12.7931 140.981 13.3207 141.323 13.9927C141.664 14.6648 141.834 15.4391 141.834 16.3159C141.834 17.2031 141.661 17.9854 141.315 18.6626C140.973 19.3346 140.49 19.8623 139.866 20.2455C139.241 20.6235 138.506 20.8125 137.661 20.8125ZM137.661 19.2611C138.474 19.2611 139.081 18.9881 139.48 18.4421C139.884 17.8909 140.086 17.1821 140.086 16.3159C140.086 15.4286 139.881 14.7199 139.472 14.1896C139.068 13.6541 138.464 13.3864 137.661 13.3864C137.109 13.3864 136.655 13.5124 136.298 13.7644C135.941 14.0111 135.676 14.355 135.503 14.796C135.33 15.2318 135.243 15.7384 135.243 16.3159C135.243 17.2084 135.448 17.9224 135.857 18.4579C136.267 18.9934 136.868 19.2611 137.661 19.2611Z" fill="white"/>
<path d="M145.069 20.5763L142.47 12.0634L144.1 12.0712L145.88 17.9066L147.675 12.0712H149.093L150.888 17.9066L152.668 12.0712H154.29L151.691 20.5763H150.368L148.384 14.418L146.392 20.5763H145.069Z" fill="white"/>
<defs>
<clipPath id="clip0_2_443">
<rect width="51" height="30" fill="white"/>
</clipPath>
</defs>
</svg>
