<svg width="51" height="31" viewBox="0 0 51 31" fill="none" xmlns="http://www.w3.org/2000/svg">
<g clip-path="url(#clip0_1_1033)">
<path d="M35.0764 22.3319C34.9775 22.0684 26.2082 4.74682 26.0764 4.48337C25.6148 3.36372 24.7907 2.40873 23.7028 1.75011C20.9665 0.169432 17.472 1.0915 15.8896 3.82476C14.8017 5.70181 14.8676 7.90818 15.9225 9.65352C16.0214 9.88403 24.3951 26.4812 24.5599 26.7446C24.6588 27.0081 24.7907 27.2386 24.9225 27.502C25.3841 28.6217 26.2082 29.5767 27.2962 30.2353C30.0324 31.816 33.5269 30.9268 35.1093 28.1936C36.2302 26.3165 36.1313 24.0772 35.0764 22.3319Z" fill="white" fill-opacity="0.4"/>
<path d="M24.956 10.6085C25.9121 9.58763 26.5055 8.20453 26.5055 6.68971C26.5055 3.56128 23.967 0.992676 20.8022 0.992676C18.8571 0.992676 17.1429 1.94767 16.1209 3.42956C15.9231 3.62714 1.71429 21.1464 1.54945 21.3769C0.593407 22.3977 0 23.7808 0 25.2956C0 28.457 2.57143 30.9927 5.7033 30.9927C7.64835 30.9927 9.36264 30.0377 10.3846 28.5558C10.5824 28.3253 24.8242 10.839 24.956 10.6085Z" fill="white"/>
<path d="M49.4499 10.6085C50.406 9.58763 50.9994 8.20453 50.9994 6.68971C50.9994 3.52835 48.428 0.992676 45.2961 0.992676C43.351 0.992676 41.6368 1.94767 40.6148 3.42956C40.417 3.62714 26.1752 21.1464 26.0104 21.3769C25.0543 22.3977 24.4609 23.7808 24.4609 25.2956C24.4609 28.457 27.0324 30.9927 30.1642 30.9927C32.1093 30.9927 33.8236 30.0377 34.8456 28.5558C35.0763 28.3253 49.2851 10.839 49.4499 10.6085Z" fill="white"/>
</g>
<defs>
<clipPath id="clip0_1_1033">
<rect width="51" height="30" fill="white" transform="translate(0 0.992676)"/>
</clipPath>
</defs>
</svg>
