<svg width="24" height="25" viewBox="0 0 24 25" fill="none" xmlns="http://www.w3.org/2000/svg">
<path d="M21.9 12.2L21 11.7V11.5L21.7 10.8C21.8 10.7 21.8 10.5 21.7 10.4L21.6 10.3L20.7 10C20.7 9.9 20.7 9.8 20.6 9.8L21.2 9C21.3 8.9 21.3 8.7 21.1 8.6C21.1 8.6 21 8.6 21 8.5L20 8.3C20 8.2 19.9 8.2 19.9 8.1L20.3 7.2V6.9C20.2 6.8 20.1 6.8 20 6.8H19C19 6.8 19 6.7 18.9 6.7L19.1 5.7C19.1 5.5 19 5.4 18.9 5.4H18.8L17.8 5.6C17.8 5.5 17.7 5.5 17.6 5.4V4.4C17.6 4.2 17.5 4.1 17.3 4.1H17.2L16.3 4.5H16.2L16 3.5C16 3.3 15.8 3.2 15.7 3.3H15.6L14.8 3.9C14.7 3.9 14.6 3.9 14.6 3.8L14.3 2.9C14.2 2.8 14.1 2.7 13.9 2.7C13.9 2.7 13.8 2.7 13.8 2.8L13 3.5H12.8L12.3 2.7C12.2 2.5 12 2.5 11.8 2.5L11.7 2.6L11.2 3.5H11L10.3 2.8C10.2 2.7 10 2.7 9.9 2.8L9.8 2.9L9.5 3.8C9.4 3.8 9.3 3.8 9.3 3.9L8.5 3.3C8.3 3.2 8.1 3.2 8 3.4V3.5L7.8 4.5C7.8 4.5 7.7 4.5 7.6 4.6L6.7 4.2C6.6 4.1 6.4 4.2 6.3 4.3V5.4C6.3 5.5 6.2 5.5 6.2 5.6L5.2 5.4C5 5.3 4.9 5.4 4.9 5.6V5.7L5.1 6.7C5 6.7 5 6.8 4.9 6.8H3.9C3.7 6.8 3.6 6.9 3.6 7.1V7.2L4 8.1V8.3L3 8.5C2.8 8.5 2.7 8.7 2.7 8.8V8.9L3.3 9.7C3.3 9.8 3.3 9.9 3.2 9.9L2.4 10.3C2.3 10.4 2.2 10.5 2.2 10.7C2.2 10.7 2.2 10.8 2.3 10.8L3 11.5V11.7L2.2 12.2C2 12.3 2 12.5 2 12.6L2.1 12.7L3 13.3V13.5L2.3 14.2C2.2 14.3 2.2 14.5 2.3 14.6L2.4 14.7L3.3 15C3.3 15.1 3.3 15.2 3.4 15.2L2.8 16C2.7 16.1 2.7 16.3 2.9 16.4C2.9 16.4 3 16.4 3 16.5L4 16.7C4 16.8 4.1 16.8 4.1 16.9L3.7 17.8C3.6 17.9 3.7 18.1 3.8 18.2H4.9C5 18.2 5 18.3 5.1 18.3L4.9 19.3C4.9 19.5 5 19.6 5.1 19.6H5.2L6.2 19.4C6.2 19.5 6.3 19.5 6.4 19.6V20.6C6.4 20.8 6.5 20.9 6.7 20.9H6.8L7.7 20.5H7.8L8 21.5C8 21.7 8.2 21.8 8.3 21.7H8.4L9.2 21.1C9.3 21.1 9.4 21.1 9.4 21.2L9.7 22.1C9.8 22.2 9.9 22.3 10.1 22.3C10.1 22.3 10.2 22.3 10.2 22.2L11 21.5H11.2L11.7 22.3C11.8 22.4 12 22.5 12.1 22.4L12.2 22.3L12.7 21.5H12.9L13.6 22.2C13.7 22.3 13.9 22.3 14 22.2L14.1 22.1L14.4 21.2C14.5 21.2 14.6 21.2 14.6 21.1L15.4 21.7C15.5 21.8 15.7 21.8 15.8 21.6C15.8 21.6 15.8 21.5 15.9 21.5L16.1 20.5C16.2 20.5 16.2 20.4 16.3 20.4L17.2 20.8C17.3 20.9 17.5 20.8 17.6 20.7V19.6L17.8 19.4L18.8 19.6C19 19.6 19.1 19.5 19.1 19.4V19.3L18.9 18.3L19.1 18.1H20.1C20.3 18.1 20.4 18 20.4 17.8V17.7L20 16.8C20 16.7 20.1 16.7 20.1 16.6L21.1 16.4C21.3 16.4 21.4 16.2 21.3 16.1V16L20.7 15.2L20.8 15L21.7 14.7C21.8 14.6 21.9 14.5 21.9 14.3C21.9 14.3 21.9 14.2 21.8 14.2L21 13.5V13.3L21.8 12.8C22 12.7 22 12.5 21.9 12.2C21.9 12.3 21.9 12.3 21.9 12.2ZM16.2 19.2C15.9 19.1 15.7 18.8 15.7 18.5C15.8 18.2 16.1 18 16.4 18C16.7 18.1 16.9 18.4 16.9 18.7C16.9 19.1 16.6 19.3 16.2 19.2ZM16 17.3C15.7 17.2 15.4 17.4 15.4 17.7L15 19.1C14.1 19.5 13.1 19.7 12 19.7C10.9 19.7 9.9 19.5 8.9 19L8.6 17.6C8.5 17.3 8.3 17.1 8 17.2L6.8 17.5C6.6 17.3 6.4 17 6.2 16.8H12.2C12.3 16.8 12.3 16.8 12.3 16.7V14.6C12.3 14.5 12.3 14.5 12.2 14.5H10.5V13.2H12.4C12.6 13.2 13.3 13.2 13.6 14.2C13.7 14.5 13.8 15.5 14 15.8C14.1 16.1 14.6 16.8 15.1 16.8H18.2C18 17.1 17.8 17.3 17.5 17.6L16 17.3ZM7.7 19.2C7.4 19.3 7.1 19.1 7 18.7C6.9 18.4 7.1 18.1 7.5 18C7.9 17.9 8.1 18.1 8.2 18.5C8.2 18.8 8 19.1 7.7 19.2ZM5.4 10C5.5 10.3 5.4 10.7 5.1 10.8C4.8 10.9 4.4 10.8 4.3 10.5C4.2 10.2 4.3 9.8 4.6 9.7C5 9.6 5.3 9.7 5.4 10ZM4.7 11.6L6 11.1C6.3 11 6.4 10.7 6.3 10.4L6 9.8H7V14.5H5C4.7 13.5 4.6 12.6 4.7 11.6ZM10.3 11.2V9.8H12.8C12.9 9.8 13.7 9.9 13.7 10.5C13.7 11 13.1 11.2 12.6 11.2H10.3ZM19.3 12.4V12.9H18.5C18.4 12.9 18.4 12.9 18.4 13V13.3C18.4 14.1 17.9 14.3 17.5 14.3C17.1 14.3 16.7 14.1 16.6 13.9C16.4 12.6 16 12.4 15.4 11.9C16.1 11.4 16.9 10.7 16.9 9.8C16.9 8.8 16.2 8.2 15.8 7.9C15.1 7.5 14.4 7.4 14.2 7.4H6.6C7.7 6.2 9.1 5.4 10.7 5.1L11.6 6.1C11.8 6.3 12.1 6.3 12.4 6.1L13.4 5.1C15.5 5.5 17.3 6.8 18.4 8.7L17.7 10.3C17.6 10.6 17.7 10.9 18 11L19.3 11.6V12.4ZM11.6 4.4C11.8 4.2 12.2 4.2 12.4 4.4C12.6 4.6 12.6 5 12.4 5.2C12.1 5.5 11.8 5.5 11.5 5.2C11.3 5 11.4 4.7 11.6 4.4ZM18.5 10C18.6 9.7 19 9.6 19.3 9.7C19.6 9.8 19.7 10.2 19.6 10.5C19.5 10.8 19.1 10.9 18.8 10.8C18.5 10.7 18.4 10.3 18.5 10Z" fill="#F8F8F8"/>
</svg>
